# Blender 5.1.1
# www.blender.org
mtllib alacena.mtl
o Cube.001_Cube.002
v 29.996780 0.018201 -2.085168
v 29.996780 0.018201 -0.085168
v -50.000000 0.018201 -0.085168
v -50.000000 0.018201 -2.085168
v 29.996780 7.018202 -2.085170
v 29.996780 7.018202 -0.085170
v -50.000000 7.018202 -0.085170
v -50.000000 7.018202 -2.085170
v -50.000000 40.000000 -2.085173
v -50.000000 40.000000 -0.085173
v 29.996780 40.000000 -0.085173
v 29.996780 40.000000 -2.085173
v -50.000000 33.000000 -2.085172
v -50.000000 33.000000 -0.085172
v 29.996780 33.000000 -0.085172
v 29.996780 33.000000 -2.085172
v -50.000000 7.018202 -2.085170
v -50.000000 7.018202 -0.085170
v -50.000000 33.000000 -0.085172
v -50.000000 33.000000 -2.085172
v -43.000000 7.018202 -2.085170
v -43.000000 7.018202 -0.085170
v -43.000000 33.000000 -0.085172
v -43.000000 33.000000 -2.085172
v 22.000000 7.018202 -2.085170
v 22.000000 7.018202 -0.085170
v 22.000000 33.000000 -0.085172
v 22.000000 33.000000 -2.085172
v 29.996780 7.018202 -2.085170
v 29.996780 7.018202 -0.085170
v 29.996780 33.000000 -0.085172
v 29.996780 33.000000 -2.085172
vn -0.0000 -1.0000 -0.0000
vn -0.0000 1.0000 -0.0000
vn 1.0000 -0.0000 -0.0000
vn -0.0000 -0.0000 1.0000
vn -1.0000 -0.0000 -0.0000
vn -0.0000 -0.0000 -1.0000
s 0
usemtl grey.002
f 2//1 4//1 1//1
f 8//2 6//2 5//2
f 1//3 6//3 2//3
f 6//4 3//4 2//4
f 7//5 4//5 3//5
f 1//6 8//6 5//6
f 16//6 9//6 12//6
f 10//5 13//5 14//5
f 11//4 14//4 15//4
f 12//3 15//3 16//3
f 9//2 11//2 12//2
f 15//1 13//1 16//1
f 18//5 20//5 17//5
f 24//3 22//3 21//3
f 21//1 18//1 17//1
f 22//4 19//4 18//4
f 23//2 20//2 19//2
f 17//6 24//6 21//6
f 26//5 28//5 25//5
f 32//3 30//3 29//3
f 29//1 26//1 25//1
f 30//4 27//4 26//4
f 31//2 28//2 27//2
f 25//6 32//6 29//6
f 2//1 3//1 4//1
f 8//2 7//2 6//2
f 1//3 5//3 6//3
f 6//4 7//4 3//4
f 7//5 8//5 4//5
f 1//6 4//6 8//6
f 16//6 13//6 9//6
f 10//5 9//5 13//5
f 11//4 10//4 14//4
f 12//3 11//3 15//3
f 9//2 10//2 11//2
f 15//1 14//1 13//1
f 18//5 19//5 20//5
f 24//3 23//3 22//3
f 21//1 22//1 18//1
f 22//4 23//4 19//4
f 23//2 24//2 20//2
f 17//6 20//6 24//6
f 26//5 27//5 28//5
f 32//3 31//3 30//3
f 29//1 30//1 26//1
f 30//4 31//4 27//4
f 31//2 32//2 28//2
f 25//6 28//6 32//6
o Cube.002_Cube
v 29.994047 -0.000002 -3.614968
v 29.994047 -0.000001 -1.614968
v -49.969971 -0.000001 -1.614968
v -49.969971 -0.000002 -3.614968
v 29.994047 40.060852 -3.614973
v 29.994047 40.060852 -1.614973
v -49.969971 40.060852 -1.614973
v -49.969971 40.060852 -3.614973
vn -0.0000 -1.0000 -0.0000
vn -0.0000 1.0000 -0.0000
vn 1.0000 -0.0000 -0.0000
vn -0.0000 -0.0000 1.0000
vn -1.0000 -0.0000 -0.0000
vn -0.0000 -0.0000 -1.0000
s 0
usemtl grey.002
f 34//7 36//7 33//7
f 40//8 38//8 37//8
f 33//9 38//9 34//9
f 38//10 35//10 34//10
f 39//11 36//11 35//11
f 33//12 40//12 37//12
f 34//7 35//7 36//7
f 40//8 39//8 38//8
f 33//9 37//9 38//9
f 38//10 39//10 35//10
f 39//11 40//11 36//11
f 33//12 36//12 40//12
o Cube.004_Cube.005
v -16.894190 5.000002 -1.085169
v -16.894190 3.000002 -1.085169
v -18.894190 3.000002 -1.085169
v -18.894190 5.000002 -1.085169
v -16.894190 5.000002 3.914834
v -16.894190 3.000003 3.914834
v -18.894190 3.000003 3.914834
v -18.894190 5.000002 3.914834
v -2.894190 5.000002 3.914834
v -2.894190 3.000003 3.914834
v -0.894190 3.000003 3.914834
v -0.894190 5.000002 3.914834
v -2.894190 5.000002 -1.085169
v -2.894190 3.000002 -1.085169
v -0.894190 3.000002 -1.085169
v -0.894190 5.000002 -1.085169
vn -0.0000 -0.0000 -1.0000
vn -0.0000 -0.0000 1.0000
vn 1.0000 -0.0000 -0.0000
vn -0.0000 -1.0000 -0.0000
vn -1.0000 -0.0000 -0.0000
vn -0.0000 1.0000 -0.0000
s 0
usemtl ltgrey.002
f 42//13 44//13 41//13
f 48//14 46//14 45//14
f 45//15 42//15 41//15
f 46//16 43//16 42//16
f 47//17 44//17 43//17
f 41//18 48//18 45//18
f 49//18 56//18 53//18
f 50//17 53//17 54//17
f 51//16 54//16 55//16
f 52//15 55//15 56//15
f 49//14 51//14 52//14
f 53//13 55//13 54//13
f 42//13 43//13 44//13
f 48//14 47//14 46//14
f 45//15 46//15 42//15
f 46//16 47//16 43//16
f 47//17 48//17 44//17
f 41//18 44//18 48//18
f 49//18 52//18 56//18
f 50//17 49//17 53//17
f 51//16 50//16 54//16
f 52//15 51//15 55//15
f 49//14 50//14 51//14
f 53//13 56//13 55//13
o Cube.005_Cube.006
v -2.933068 5.000002 1.914831
v -2.933068 3.000002 1.914831
v -16.933067 3.000002 1.914831
v -16.933067 5.000002 1.914831
v -2.933068 5.000002 3.914834
v -2.933068 3.000003 3.914834
v -16.933067 3.000003 3.914834
v -16.933067 5.000002 3.914834
vn -0.0000 -0.0000 -1.0000
vn -0.0000 -0.0000 1.0000
vn 1.0000 -0.0000 -0.0000
vn -0.0000 -1.0000 -0.0000
vn -1.0000 -0.0000 -0.0000
vn -0.0000 1.0000 -0.0000
s 0
usemtl flltgrey.002
f 58//19 60//19 57//19
f 64//20 62//20 61//20
f 57//21 62//21 58//21
f 62//22 59//22 58//22
f 63//23 60//23 59//23
f 57//24 64//24 61//24
f 58//19 59//19 60//19
f 64//20 63//20 62//20
f 57//21 61//21 62//21
f 62//22 63//22 59//22
f 63//23 64//23 60//23
f 57//24 60//24 64//24
o Cube_Cube.001
v 29.999981 -0.003212 -40.000000
v 29.999981 -0.003207 -1.764485
v -49.999985 -0.003207 -1.764485
v -49.999966 -0.003212 -40.000015
v 30.000000 40.064362 -39.999992
v 29.999958 40.064369 -1.764475
v -49.999996 40.064369 -1.764504
v -49.999977 40.064362 -40.000008
vn -0.0000 -1.0000 -0.0000
vn -0.0000 1.0000 -0.0000
vn 1.0000 -0.0000 -0.0000
vn -0.0000 -0.0000 1.0000
vn -1.0000 -0.0000 -0.0000
vn -0.0000 -0.0000 -1.0000
s 0
usemtl white.002
f 66//25 68//25 65//25
f 72//26 70//26 69//26
f 69//27 66//27 65//27
f 70//28 67//28 66//28
f 67//29 72//29 68//29
f 65//30 72//30 69//30
f 66//25 67//25 68//25
f 72//26 71//26 70//26
f 69//27 70//27 66//27
f 70//28 71//28 67//28
f 67//29 71//29 72//29
f 65//30 68//30 72//30
